<mxfile host="app.diagrams.net" agent="Mozilla/5.0 (Windows NT 10.0; Win64; x64) AppleWebKit/537.36 (KHTML, like Gecko) Chrome/129.0.0.0 Safari/537.36" version="24.7.17">
  <diagram name="第 1 页" id="aXQQuOtkRS8TvUPB2Q-p">
    <mxGraphModel dx="794" dy="446" grid="1" gridSize="10" guides="1" tooltips="1" connect="1" arrows="0" fold="1" page="1" pageScale="1" pageWidth="827" pageHeight="1169" math="0" shadow="0">
      <root>
        <mxCell id="0" />
        <mxCell id="1" parent="0" />
        <mxCell id="yFsxWnC4twTi9RpUh4xe-1" value="&lt;font face=&quot;Times New Roman&quot; style=&quot;font-size: 22px;&quot;&gt;SPI I/O&lt;/font&gt;" style="rounded=1;whiteSpace=wrap;html=1;" vertex="1" parent="1">
          <mxGeometry x="315" y="200" width="250" height="40" as="geometry" />
        </mxCell>
        <mxCell id="yFsxWnC4twTi9RpUh4xe-10" style="edgeStyle=orthogonalEdgeStyle;rounded=0;orthogonalLoop=1;jettySize=auto;html=1;exitX=0.5;exitY=1;exitDx=0;exitDy=0;entryX=0.5;entryY=0;entryDx=0;entryDy=0;" edge="1" parent="1" source="yFsxWnC4twTi9RpUh4xe-1" target="yFsxWnC4twTi9RpUh4xe-9">
          <mxGeometry relative="1" as="geometry">
            <mxPoint x="440" y="280" as="sourcePoint" />
            <Array as="points">
              <mxPoint x="440" y="300" />
              <mxPoint x="540" y="300" />
            </Array>
          </mxGeometry>
        </mxCell>
        <mxCell id="yFsxWnC4twTi9RpUh4xe-14" style="edgeStyle=orthogonalEdgeStyle;rounded=0;orthogonalLoop=1;jettySize=auto;html=1;exitX=0;exitY=0.5;exitDx=0;exitDy=0;entryX=0;entryY=0.5;entryDx=0;entryDy=0;" edge="1" parent="1" source="yFsxWnC4twTi9RpUh4xe-4" target="yFsxWnC4twTi9RpUh4xe-13">
          <mxGeometry relative="1" as="geometry" />
        </mxCell>
        <mxCell id="yFsxWnC4twTi9RpUh4xe-4" value="" style="rounded=1;whiteSpace=wrap;html=1;" vertex="1" parent="1">
          <mxGeometry x="214" y="300" width="200" height="90" as="geometry" />
        </mxCell>
        <mxCell id="yFsxWnC4twTi9RpUh4xe-5" value="Data Scheduler" style="text;html=1;align=center;verticalAlign=middle;whiteSpace=wrap;rounded=0;" vertex="1" parent="1">
          <mxGeometry x="224" y="310" width="60" height="30" as="geometry" />
        </mxCell>
        <mxCell id="yFsxWnC4twTi9RpUh4xe-6" value="FIFO" style="rounded=0;whiteSpace=wrap;html=1;" vertex="1" parent="1">
          <mxGeometry x="324" y="350" width="70" height="40" as="geometry" />
        </mxCell>
        <mxCell id="yFsxWnC4twTi9RpUh4xe-7" value="Encoder" style="rounded=0;whiteSpace=wrap;html=1;" vertex="1" parent="1">
          <mxGeometry x="224" y="340" width="70" height="40" as="geometry" />
        </mxCell>
        <mxCell id="yFsxWnC4twTi9RpUh4xe-8" value="Control Logic" style="rounded=0;whiteSpace=wrap;html=1;" vertex="1" parent="1">
          <mxGeometry x="324" y="300" width="70" height="40" as="geometry" />
        </mxCell>
        <mxCell id="yFsxWnC4twTi9RpUh4xe-12" style="edgeStyle=orthogonalEdgeStyle;rounded=0;orthogonalLoop=1;jettySize=auto;html=1;exitX=0;exitY=0.5;exitDx=0;exitDy=0;entryX=1;entryY=0.5;entryDx=0;entryDy=0;" edge="1" parent="1" source="yFsxWnC4twTi9RpUh4xe-9" target="yFsxWnC4twTi9RpUh4xe-4">
          <mxGeometry relative="1" as="geometry" />
        </mxCell>
        <mxCell id="yFsxWnC4twTi9RpUh4xe-9" value="&lt;font style=&quot;font-size: 19px;&quot;&gt;arbiter&lt;/font&gt;" style="rounded=1;whiteSpace=wrap;html=1;" vertex="1" parent="1">
          <mxGeometry x="480" y="315" width="120" height="60" as="geometry" />
        </mxCell>
        <mxCell id="yFsxWnC4twTi9RpUh4xe-13" value="Decoder" style="rounded=0;whiteSpace=wrap;html=1;" vertex="1" parent="1">
          <mxGeometry x="224" y="420" width="70" height="40" as="geometry" />
        </mxCell>
        <mxCell id="yFsxWnC4twTi9RpUh4xe-15" value="RRAM&lt;div&gt;CIM&lt;/div&gt;" style="whiteSpace=wrap;html=1;aspect=fixed;" vertex="1" parent="1">
          <mxGeometry x="374" y="420" width="80" height="80" as="geometry" />
        </mxCell>
        <mxCell id="yFsxWnC4twTi9RpUh4xe-17" value="ADC" style="rounded=0;whiteSpace=wrap;html=1;rotation=-90;" vertex="1" parent="1">
          <mxGeometry x="423.5" y="450.5" width="81" height="20" as="geometry" />
        </mxCell>
      </root>
    </mxGraphModel>
  </diagram>
</mxfile>
